<mxfile host="app.diagrams.net" agent="Mozilla/5.0 (X11; Linux x86_64; rv:131.0) Gecko/20100101 Firefox/131.0" version="24.7.17">
  <diagram name="Page-1" id="2OPp7FAaOo7LbOAuJkzw">
    <mxGraphModel dx="971" dy="1345" grid="0" gridSize="10" guides="1" tooltips="1" connect="1" arrows="1" fold="1" page="0" pageScale="1" pageWidth="827" pageHeight="1169" math="0" shadow="0">
      <root>
        <mxCell id="0" />
        <mxCell id="1" parent="0" />
        <mxCell id="_oZ8LhXAHsHZBwFGsVQp-8" style="edgeStyle=none;curved=1;rounded=0;orthogonalLoop=1;jettySize=auto;html=1;exitX=0.5;exitY=1;exitDx=0;exitDy=0;entryX=0.5;entryY=0;entryDx=0;entryDy=0;fontSize=12;startSize=8;endSize=8;" edge="1" parent="1" source="_oZ8LhXAHsHZBwFGsVQp-1" target="_oZ8LhXAHsHZBwFGsVQp-3">
          <mxGeometry relative="1" as="geometry" />
        </mxCell>
        <mxCell id="_oZ8LhXAHsHZBwFGsVQp-1" value="" style="ellipse;whiteSpace=wrap;html=1;aspect=fixed;" vertex="1" parent="1">
          <mxGeometry x="51" y="-71" width="80" height="80" as="geometry" />
        </mxCell>
        <mxCell id="_oZ8LhXAHsHZBwFGsVQp-2" value="SET" style="text;html=1;align=center;verticalAlign=middle;whiteSpace=wrap;rounded=0;fontSize=16;" vertex="1" parent="1">
          <mxGeometry x="142" y="-44" width="60" height="30" as="geometry" />
        </mxCell>
        <mxCell id="_oZ8LhXAHsHZBwFGsVQp-28" style="edgeStyle=none;curved=1;rounded=0;orthogonalLoop=1;jettySize=auto;html=1;exitX=0.5;exitY=1;exitDx=0;exitDy=0;entryX=0.5;entryY=0;entryDx=0;entryDy=0;fontSize=12;startSize=8;endSize=8;" edge="1" parent="1" source="_oZ8LhXAHsHZBwFGsVQp-3" target="_oZ8LhXAHsHZBwFGsVQp-26">
          <mxGeometry relative="1" as="geometry" />
        </mxCell>
        <mxCell id="_oZ8LhXAHsHZBwFGsVQp-3" value="" style="ellipse;whiteSpace=wrap;html=1;aspect=fixed;" vertex="1" parent="1">
          <mxGeometry x="51" y="43" width="80" height="80" as="geometry" />
        </mxCell>
        <mxCell id="_oZ8LhXAHsHZBwFGsVQp-4" value="INC" style="text;html=1;align=center;verticalAlign=middle;whiteSpace=wrap;rounded=0;fontSize=16;" vertex="1" parent="1">
          <mxGeometry x="142" y="70" width="60" height="30" as="geometry" />
        </mxCell>
        <mxCell id="_oZ8LhXAHsHZBwFGsVQp-14" value="" style="shape=flexArrow;endArrow=classic;html=1;rounded=0;fontSize=12;startSize=8;endSize=11.225000000000001;curved=1;width=50.833333333333336;" edge="1" parent="1">
          <mxGeometry width="50" height="50" relative="1" as="geometry">
            <mxPoint x="584" y="84.57999999999998" as="sourcePoint" />
            <mxPoint x="663" y="84.57999999999993" as="targetPoint" />
          </mxGeometry>
        </mxCell>
        <mxCell id="_oZ8LhXAHsHZBwFGsVQp-35" style="edgeStyle=none;curved=1;rounded=0;orthogonalLoop=1;jettySize=auto;html=1;exitX=0.5;exitY=1;exitDx=0;exitDy=0;entryX=0.5;entryY=0;entryDx=0;entryDy=0;fontSize=12;startSize=8;endSize=8;fillColor=#f8cecc;strokeColor=#b85450;" edge="1" parent="1" source="_oZ8LhXAHsHZBwFGsVQp-24" target="_oZ8LhXAHsHZBwFGsVQp-31">
          <mxGeometry relative="1" as="geometry" />
        </mxCell>
        <mxCell id="_oZ8LhXAHsHZBwFGsVQp-24" value="" style="ellipse;whiteSpace=wrap;html=1;aspect=fixed;fillColor=#f8cecc;strokeColor=#b85450;" vertex="1" parent="1">
          <mxGeometry x="331" y="-71" width="80" height="80" as="geometry" />
        </mxCell>
        <mxCell id="_oZ8LhXAHsHZBwFGsVQp-25" value="SET" style="text;html=1;align=center;verticalAlign=middle;whiteSpace=wrap;rounded=0;fontSize=16;fillColor=#f8cecc;strokeColor=#b85450;" vertex="1" parent="1">
          <mxGeometry x="422" y="-44" width="60" height="30" as="geometry" />
        </mxCell>
        <mxCell id="_oZ8LhXAHsHZBwFGsVQp-26" value="" style="ellipse;whiteSpace=wrap;html=1;aspect=fixed;" vertex="1" parent="1">
          <mxGeometry x="51" y="173" width="80" height="80" as="geometry" />
        </mxCell>
        <mxCell id="_oZ8LhXAHsHZBwFGsVQp-27" value="INC" style="text;html=1;align=center;verticalAlign=middle;whiteSpace=wrap;rounded=0;fontSize=16;" vertex="1" parent="1">
          <mxGeometry x="142" y="198" width="60" height="30" as="geometry" />
        </mxCell>
        <mxCell id="_oZ8LhXAHsHZBwFGsVQp-29" value="" style="ellipse;whiteSpace=wrap;html=1;aspect=fixed;" vertex="1" parent="1">
          <mxGeometry x="250" y="77.5" width="15" height="15" as="geometry" />
        </mxCell>
        <mxCell id="_oZ8LhXAHsHZBwFGsVQp-30" style="edgeStyle=none;curved=1;rounded=0;orthogonalLoop=1;jettySize=auto;html=1;exitX=0.5;exitY=1;exitDx=0;exitDy=0;entryX=0.5;entryY=0;entryDx=0;entryDy=0;fontSize=12;startSize=8;endSize=8;fillColor=#f8cecc;strokeColor=#b85450;" edge="1" parent="1" source="_oZ8LhXAHsHZBwFGsVQp-31" target="_oZ8LhXAHsHZBwFGsVQp-33">
          <mxGeometry relative="1" as="geometry" />
        </mxCell>
        <mxCell id="_oZ8LhXAHsHZBwFGsVQp-31" value="" style="ellipse;whiteSpace=wrap;html=1;aspect=fixed;fillColor=#f8cecc;strokeColor=#b85450;" vertex="1" parent="1">
          <mxGeometry x="331" y="43" width="80" height="80" as="geometry" />
        </mxCell>
        <mxCell id="_oZ8LhXAHsHZBwFGsVQp-32" value="INC" style="text;html=1;align=center;verticalAlign=middle;whiteSpace=wrap;rounded=0;fontSize=16;fillColor=#f8cecc;strokeColor=#b85450;" vertex="1" parent="1">
          <mxGeometry x="422" y="70" width="60" height="30" as="geometry" />
        </mxCell>
        <mxCell id="_oZ8LhXAHsHZBwFGsVQp-33" value="" style="ellipse;whiteSpace=wrap;html=1;aspect=fixed;fillColor=#f8cecc;strokeColor=#b85450;" vertex="1" parent="1">
          <mxGeometry x="331" y="173" width="80" height="80" as="geometry" />
        </mxCell>
        <mxCell id="_oZ8LhXAHsHZBwFGsVQp-34" value="INC" style="text;html=1;align=center;verticalAlign=middle;whiteSpace=wrap;rounded=0;fontSize=16;fillColor=#f8cecc;strokeColor=#b85450;" vertex="1" parent="1">
          <mxGeometry x="422" y="198" width="60" height="30" as="geometry" />
        </mxCell>
        <mxCell id="_oZ8LhXAHsHZBwFGsVQp-37" value="" style="sketch=0;html=1;aspect=fixed;strokeColor=none;shadow=0;align=center;fillColor=#2D9C5E;verticalAlign=top;labelPosition=center;verticalLabelPosition=bottom;shape=mxgraph.gcp2.check" vertex="1" parent="1">
          <mxGeometry x="316" y="-96" width="58.75" height="47" as="geometry" />
        </mxCell>
        <mxCell id="_oZ8LhXAHsHZBwFGsVQp-40" style="edgeStyle=none;curved=1;rounded=0;orthogonalLoop=1;jettySize=auto;html=1;exitX=0.5;exitY=1;exitDx=0;exitDy=0;entryX=0.5;entryY=0;entryDx=0;entryDy=0;fontSize=12;startSize=8;endSize=8;fillColor=#f8cecc;strokeColor=#b85450;" edge="1" parent="1" source="_oZ8LhXAHsHZBwFGsVQp-41" target="_oZ8LhXAHsHZBwFGsVQp-44">
          <mxGeometry relative="1" as="geometry" />
        </mxCell>
        <mxCell id="_oZ8LhXAHsHZBwFGsVQp-41" value="" style="ellipse;whiteSpace=wrap;html=1;aspect=fixed;fillColor=#f8cecc;strokeColor=#b85450;" vertex="1" parent="1">
          <mxGeometry x="744" y="-71" width="80" height="80" as="geometry" />
        </mxCell>
        <mxCell id="_oZ8LhXAHsHZBwFGsVQp-42" value="SET" style="text;html=1;align=center;verticalAlign=middle;whiteSpace=wrap;rounded=0;fontSize=16;fillColor=#f8cecc;strokeColor=#b85450;" vertex="1" parent="1">
          <mxGeometry x="835" y="-44" width="60" height="30" as="geometry" />
        </mxCell>
        <mxCell id="_oZ8LhXAHsHZBwFGsVQp-43" style="edgeStyle=none;curved=1;rounded=0;orthogonalLoop=1;jettySize=auto;html=1;exitX=0.5;exitY=1;exitDx=0;exitDy=0;entryX=0.5;entryY=0;entryDx=0;entryDy=0;fontSize=12;startSize=8;endSize=8;fillColor=#f8cecc;strokeColor=#b85450;" edge="1" parent="1" source="_oZ8LhXAHsHZBwFGsVQp-44" target="_oZ8LhXAHsHZBwFGsVQp-46">
          <mxGeometry relative="1" as="geometry" />
        </mxCell>
        <mxCell id="_oZ8LhXAHsHZBwFGsVQp-44" value="" style="ellipse;whiteSpace=wrap;html=1;aspect=fixed;fillColor=#f8cecc;strokeColor=#b85450;" vertex="1" parent="1">
          <mxGeometry x="744" y="43" width="80" height="80" as="geometry" />
        </mxCell>
        <mxCell id="_oZ8LhXAHsHZBwFGsVQp-45" value="INC" style="text;html=1;align=center;verticalAlign=middle;whiteSpace=wrap;rounded=0;fontSize=16;fillColor=#f8cecc;strokeColor=#b85450;" vertex="1" parent="1">
          <mxGeometry x="835" y="70" width="60" height="30" as="geometry" />
        </mxCell>
        <mxCell id="_oZ8LhXAHsHZBwFGsVQp-53" style="edgeStyle=none;curved=1;rounded=0;orthogonalLoop=1;jettySize=auto;html=1;exitX=0.5;exitY=1;exitDx=0;exitDy=0;entryX=0.5;entryY=0;entryDx=0;entryDy=0;fontSize=12;startSize=8;endSize=8;" edge="1" parent="1" source="_oZ8LhXAHsHZBwFGsVQp-46" target="_oZ8LhXAHsHZBwFGsVQp-49">
          <mxGeometry relative="1" as="geometry" />
        </mxCell>
        <mxCell id="_oZ8LhXAHsHZBwFGsVQp-46" value="" style="ellipse;whiteSpace=wrap;html=1;aspect=fixed;fillColor=#f8cecc;strokeColor=#b85450;" vertex="1" parent="1">
          <mxGeometry x="744" y="173" width="80" height="80" as="geometry" />
        </mxCell>
        <mxCell id="_oZ8LhXAHsHZBwFGsVQp-47" value="INC" style="text;html=1;align=center;verticalAlign=middle;whiteSpace=wrap;rounded=0;fontSize=16;fillColor=#f8cecc;strokeColor=#b85450;" vertex="1" parent="1">
          <mxGeometry x="835" y="198" width="60" height="30" as="geometry" />
        </mxCell>
        <mxCell id="_oZ8LhXAHsHZBwFGsVQp-48" style="edgeStyle=none;curved=1;rounded=0;orthogonalLoop=1;jettySize=auto;html=1;exitX=0.5;exitY=1;exitDx=0;exitDy=0;entryX=0.5;entryY=0;entryDx=0;entryDy=0;fontSize=12;startSize=8;endSize=8;" edge="1" parent="1" source="_oZ8LhXAHsHZBwFGsVQp-49" target="_oZ8LhXAHsHZBwFGsVQp-51">
          <mxGeometry relative="1" as="geometry" />
        </mxCell>
        <mxCell id="_oZ8LhXAHsHZBwFGsVQp-49" value="" style="ellipse;whiteSpace=wrap;html=1;aspect=fixed;" vertex="1" parent="1">
          <mxGeometry x="744" y="307" width="80" height="80" as="geometry" />
        </mxCell>
        <mxCell id="_oZ8LhXAHsHZBwFGsVQp-50" value="INC" style="text;html=1;align=center;verticalAlign=middle;whiteSpace=wrap;rounded=0;fontSize=16;" vertex="1" parent="1">
          <mxGeometry x="835" y="334" width="60" height="30" as="geometry" />
        </mxCell>
        <mxCell id="_oZ8LhXAHsHZBwFGsVQp-51" value="" style="ellipse;whiteSpace=wrap;html=1;aspect=fixed;" vertex="1" parent="1">
          <mxGeometry x="744" y="437" width="80" height="80" as="geometry" />
        </mxCell>
        <mxCell id="_oZ8LhXAHsHZBwFGsVQp-52" value="INC" style="text;html=1;align=center;verticalAlign=middle;whiteSpace=wrap;rounded=0;fontSize=16;" vertex="1" parent="1">
          <mxGeometry x="835" y="462" width="60" height="30" as="geometry" />
        </mxCell>
      </root>
    </mxGraphModel>
  </diagram>
</mxfile>
